<svg xmlns="http://www.w3.org/2000/svg" viewBox="0 0 1200 400" width="1200" height="400">
  <defs>
    <linearGradient id="bgGrad" x1="0%" y1="0%" x2="100%" y2="100%">
      <stop offset="0%" style="stop-color:#0f172a" />
      <stop offset="50%" style="stop-color:#1e293b" />
      <stop offset="100%" style="stop-color:#0f172a" />
    </linearGradient>
    <linearGradient id="iconGrad" x1="0%" y1="0%" x2="0%" y2="100%">
      <stop offset="0%" style="stop-color:#3b82f6" />
      <stop offset="100%" style="stop-color:#1e40af" />
    </linearGradient>
    <linearGradient id="accentLine" x1="0%" y1="0%" x2="100%" y2="0%">
      <stop offset="0%" style="stop-color:#1e40af" />
      <stop offset="100%" style="stop-color:#3b82f6" />
    </linearGradient>
  </defs>
  
  <rect width="1200" height="400" fill="url(#bgGrad)"/>
  
  <!-- Subtle grid -->
  <g opacity="0.03" stroke="white" stroke-width="0.5">
    <line x1="0" y1="100" x2="1200" y2="100"/>
    <line x1="0" y1="200" x2="1200" y2="200"/>
    <line x1="0" y1="300" x2="1200" y2="300"/>
    <line x1="300" y1="0" x2="300" y2="400"/>
    <line x1="600" y1="0" x2="600" y2="400"/>
    <line x1="900" y1="0" x2="900" y2="400"/>
  </g>
  
  <rect x="0" y="0" width="1200" height="4" fill="url(#accentLine)"/>
  
  <!-- Icon: 120x120 scaled to 180x180, positioned at (120, 110) -->
  <g transform="translate(120, 110) scale(1.5)">
    <rect x="0" y="0" width="120" height="120" rx="26" fill="url(#iconGrad)"/>
    <path d="M34 90 L34 48 L60 28 L86 48 L86 90" stroke="white" stroke-width="8" fill="none" stroke-linecap="round" stroke-linejoin="round"/>
    <line x1="34" y1="66" x2="86" y2="66" stroke="white" stroke-width="8" stroke-linecap="round"/>
    <path d="M47 40 L60 25 L73 40" stroke="white" stroke-width="3.5" fill="none" stroke-linecap="round" stroke-linejoin="round" opacity="0.5"/>
  </g>
  
  <text x="340" y="195" font-family="system-ui, -apple-system, 'Segoe UI', Helvetica, sans-serif" font-size="72" fill="white">
    <tspan font-weight="300" fill="#94a3b8">My</tspan><tspan font-weight="700">Hiwi</tspan>
  </text>
  <text x="345" y="235" font-family="system-ui, -apple-system, 'Segoe UI', Helvetica, sans-serif" font-size="18" fill="#64748b" font-weight="400" letter-spacing="4">DEIN DIGITALER HIWI</text>
  <text x="345" y="280" font-family="system-ui, -apple-system, 'Segoe UI', Helvetica, sans-serif" font-size="15" fill="#475569">
    <tspan fill="#3b82f6">SEO</tspan>
    <tspan fill="#334155"> &#183; </tspan>
    <tspan fill="#3b82f6">Webdesign</tspan>
    <tspan fill="#334155"> &#183; </tspan>
    <tspan fill="#3b82f6">Google Business</tspan>
    <tspan fill="#334155"> &#183; </tspan>
    <tspan fill="#3b82f6">AI-Telefonassistent</tspan>
  </text>
  <text x="1060" y="360" text-anchor="end" font-family="system-ui, -apple-system, 'Segoe UI', Helvetica, sans-serif" font-size="16" fill="#3b82f6" font-weight="500">myhiwi.de</text>
</svg>